#!OML:ASF H:\Terrain\Patient Classification 1\Terrain2\Thursday\justin.ASF
:FULLY-SPECIFIED
:DEGREES
1749
root 30.5029 17.8415 0.0947271 716.108 -0.141985 353.172
lowerback 5.86582 0.978403 4.97597
upperback 2.78664 1.59975 3.95745
thorax -0.389196 0.818086 1.19017
lowerneck -11.5805 -2.70187 -10.5233
upperneck 38.8815 -3.23592 5.68742
head 16.0826 -2.12493 3.84619
rclavicle -1.38155e-014 -3.73715e-014
rhumerus -29.8492 -10.1991 -79.1619
rradius 23.1835
rwrist -5.45748
rhand -20.3622 12.0563
rfingers 7.12502
rthumb 5.99016 -17.839
lclavicle -1.38155e-014 -3.73715e-014
lhumerus -33.8272 11.4554 83.8859
lradius 25.374
lwrist -0.0618613
lhand -17.9916 20.972
lfingers 7.12502
lthumb 8.27845 50.7898
rfemur 4.42796 -5.3397 31.01
rtibia 19.615
rfoot -17.2901 3.70181
rtoes 13.6657
lfemur -26.6436 7.58545 -9.50852
ltibia 60.1739
lfoot -10.5186 -10.3942
ltoes -11.3127
1750
root 30.5054 17.8431 0.155747 716.02 -0.217664 352.987
lowerback 6.0015 0.988843 5.31023
upperback 2.81723 1.64018 3.96711
thorax -0.422258 0.840493 1.0097
lowerneck -11.7122 -2.74149 -10.4638
upperneck 38.9665 -3.25696 5.57771
head 16.1593 -2.14038 3.78671
rclavicle -1.2921e-014 -2.70347e-014
rhumerus -29.978 -10.2892 -79.0656
rradius 23.1421
rwrist -5.43657
rhand -20.0401 12.1741
rfingers 7.12502
rthumb 6.30107 -17.7122
lclavicle -1.2921e-014 -2.70347e-014
lhumerus -34.2398 12.1791 83.4985
lradius 24.8615
lwrist -0.991106
lhand -17.2305 21.5875
lfingers 7.12502
lthumb 9.01295 51.375
rfemur 5.1505 -5.26549 31.1908
rtibia 18.8809
rfoot -17.1017 3.7068
rtoes 13.0017
lfemur -26.9766 7.24286 -9.28186
ltibia 59.2903
lfoot -11.0192 -10.0631
ltoes -8.14233
1751
root 30.5111 17.8452 0.212116 716.046 -0.279355 352.937
lowerback 6.01518 0.999817 5.52716
upperback 2.84341 1.66539 3.95218
thorax -0.394864 0.855572 0.872458
lowerneck -11.7359 -2.72241 -10.3565
upperneck 38.8996 -3.21885 5.48719
head 16.1201 -2.11806 3.73041
rclavicle -1.2921e-015 -7.95139e-015
rhumerus -29.9986 -10.1421 -79.0608
rradius 23.2463
rwrist -5.82154
rhand -19.7042 12.803
rfingers 7.12502
rthumb 6.62538 -17.0734
lclavicle -1.2921e-015 -7.95139e-015
lhumerus -34.3846 11.6082 84.2146
lradius 26.2515
lwrist -1.51801
lhand -15.2009 41.565
lfingers 7.12502
lthumb 10.971 71.2584
rfemur 5.74213 -5.23478 31.2144
rtibia 18.1227
rfoot -16.8753 3.67276
rtoes 12.1095
lfemur -27.4145 6.83329 -9.23075
ltibia 58.2083
lfoot -11.2471 -9.57156
ltoes -4.75303
1752
root 30.5178 17.8533 0.274286 716.273 -0.325842 353.181
lowerback 5.72329 0.973931 5.32208
upperback 2.83516 1.59595 3.93677
thorax -0.248522 0.821808 0.980355
lowerneck -11.5939 -2.61706 -10.4802
upperneck 38.7211 -3.07496 5.58742
head 15.9791 -2.05942 3.81339
rclavicle -1.09332e-015 -3.18055e-014
rhumerus -29.9881 -10.0863 -78.9505
rradius 23.3209
rwrist -5.95838
rhand -19.6756 12.9752
rfingers 7.12502
rthumb 6.653 -16.9003
lclavicle -1.09332e-015 -3.18055e-014
lhumerus -34.7621 11.4701 84.6671
lradius 26.3892
lwrist -0.460719
lhand -15.5074 44.8948
lfingers 7.12502
lthumb 10.6754 74.6036
rfemur 6.12322 -5.268 30.8993
rtibia 17.3134
rfoot -16.5962 3.74524
rtoes 12.144
lfemur -27.9645 6.42161 -9.55745
ltibia 56.9516
lfoot -11.7784 -8.75715
ltoes -4.54873
1753
root 30.5256 17.864 0.340593 716.257 -0.427684 353.337
lowerback 5.65509 0.93335 5.29119
upperback 2.9447 1.5271 3.89071
thorax -0.0983964 0.791082 0.956745
lowerneck -11.754 -2.5719 -10.4944
upperneck 38.6401 -2.95706 5.52024
head 15.9616 -2.01788 3.80212
rclavicle -3.77691e-015 5.56597e-015
rhumerus -29.8965 -10.1373 -78.9087
rradius 23.3465
rwrist -6.00273
rhand -19.6841 12.2878
rfingers 7.12502
rthumb 6.64481 -17.588
lclavicle -3.77691e-015 5.56597e-015
lhumerus -35.0377 11.9114 84.5361
lradius 25.884
lwrist -0.699368
lhand -15.3995 44.3958
lfingers 7.12502
lthumb 10.7794 74.0992
rfemur 6.7278 -5.30375 30.6553
rtibia 16.6116
rfoot -16.4163 3.81735
rtoes 11.967
lfemur -28.1314 5.997 -9.75806
ltibia 55.5712
lfoot -12.567 -7.54514
ltoes -7.78979
1754
root 30.5329 17.8604 0.403192 716.071 -0.561606 353.095
lowerback 5.85859 0.9303 5.78547
upperback 3.08094 1.55515 3.84317
thorax -0.0535601 0.812689 0.629872
lowerneck -12.0654 -2.63673 -10.3875
upperneck 38.6856 -3.04278 5.49392
head 16.0685 -2.04074 3.75943
rclavicle -5.46658e-015 -4.01545e-014
rhumerus -29.8391 -10.2012 -79.0283
rradius 23.4551
rwrist -6.27174
rhand -19.691 11.6965
rfingers 7.12502
rthumb 6.63808 -18.1795
lclavicle -5.46658e-015 -4.01545e-014
lhumerus -35.0691 12.3959 84.1649
lradius 25.0125
lwrist -1.26091
lhand -14.7016 43.4565
lfingers 7.12502
lthumb 11.4526 73.1237
rfemur 7.45362 -5.14079 30.9052
rtibia 16.0526
rfoot -16.2473 3.6652
rtoes 11.4599
lfemur -28.0981 5.7191 -9.45075
ltibia 54.0883
lfoot -12.9939 -6.49196
ltoes -10.679
1755
root 30.5367 17.8527 0.458622 716.058 -0.740666 352.898
lowerback 6.11186 1.01793 6.18081
upperback 3.03924 1.71664 3.7604
thorax -0.216747 0.893726 0.310167
lowerneck -12.1839 -2.74406 -10.3169
upperneck 38.8309 -3.28026 5.65286
head 16.2025 -2.11174 3.78452
rclavicle -2.68359e-015 -2.82274e-014
rhumerus -30.0751 -10.3995 -79.093
rradius 23.706
rwrist -6.57939
rhand -19.6653 11.6796
rfingers 7.12502
rthumb 6.66297 -18.1955
lclavicle -2.68359e-015 -2.82274e-014
lhumerus -35.4636 13.9885 82.8014
lradius 23.488
lwrist -4.40398
lhand -11.2657 36.001
lfingers 7.12502
lthumb 14.7645 65.4551
rfemur 7.95098 -4.7765 31.1691
rtibia 15.486
rfoot -15.9145 3.52773
rtoes 12.092
lfemur -28.2549 5.4754 -9.16199
ltibia 52.4929
lfoot -13.1881 -5.43706
ltoes -12.7997
1756
root 30.5397 17.8568 0.51401 716.125 -0.936112 353.125
lowerback 6.30782 1.14629 6.05398
upperback 2.94135 1.90308 3.6177
thorax -0.419719 0.980598 0.215629
lowerneck -12.2004 -2.8262 -10.1231
upperneck 38.9166 -3.43549 5.57948
head 16.2629 -2.15949 3.694
rclavicle 1.94312e-014 3.77691e-014
rhumerus -30.4369 -10.5507 -79.0544
rradius 23.9993
rwrist -6.94325
rhand -19.4243 11.92
rfingers 7.12502
rthumb 6.89553 -17.9477
lclavicle 1.94312e-014 3.77691e-014
lhumerus -36.0785 15.2326 81.6495
lradius 22.3015
lwrist -6.89106
lhand -8.99137 30.7061
lfingers 7.12502
lthumb 16.9547 59.9861
rfemur 8.29772 -4.48726 30.9362
rtibia 15.0454
rfoot -15.6666 3.55323
rtoes 12.2287
lfemur -28.3907 5.00371 -9.3005
ltibia 50.7954
lfoot -13.5669 -4.31832
ltoes -13.7957
1757
root 30.5492 17.858 0.581642 716.139 -1.14367 353.233
lowerback 6.24073 1.20037 5.9927
upperback 2.98621 1.96242 3.62688
thorax -0.336178 1.01199 0.25797
lowerneck -12.182 -2.80558 -10.0821
upperneck 38.7868 -3.38657 5.50519
head 16.1812 -2.13961 3.65603
rclavicle 1.15295e-014 2.5842e-014
rhumerus -30.5589 -10.1898 -79.0382
rradius 24.2727
rwrist -7.61258
rhand -19.3604 12.1809
rfingers 7.12502
rthumb 6.95722 -17.6848
lclavicle 1.15295e-014 2.5842e-014
lhumerus -36.5518 15.7628 81.343
lradius 21.7208
lwrist -7.61249
lhand -9.12573 27.2544
lfingers 7.12502
lthumb 16.8254 56.5455
rfemur 8.67386 -4.49231 30.7293
rtibia 14.8135
rfoot -15.758 3.67423
rtoes 11.087
lfemur -28.2696 4.45349 -9.28691
ltibia 49.014
lfoot -13.9986 -3.50418
ltoes -12.6001
1758
root 30.5585 17.8485 0.649369 716.22 -1.26525 353.156
lowerback 6.05544 1.1455 5.99172
upperback 3.04433 1.8701 3.76831
thorax -0.181183 0.968999 0.415626
lowerneck -12.1965 -2.7175 -10.2613
upperneck 38.6949 -3.21047 5.53928
head 16.122 -2.08597 3.72931
rclavicle -1.00386e-014 -2.70347e-014
rhumerus -30.5661 -9.53104 -79.0349
rradius 24.6392
rwrist -8.20926
rhand -19.3232 11.8688
rfingers 7.12502
rthumb 6.99317 -17.9957
lclavicle -1.00386e-014 -2.70347e-014
lhumerus -36.8512 15.9185 81.6598
lradius 21.3186
lwrist -6.4799
lhand -10.976 25.723
lfingers 7.12502
lthumb 15.0436 55.1564
rfemur 9.01923 -4.51954 30.7379
rtibia 14.5454
rfoot -15.9195 3.72317
rtoes 10.288
lfemur -28.2136 3.87211 -9.07316
ltibia 47.1393
lfoot -14.2215 -2.65841
ltoes -11.5092
1759
root 30.5614 17.8463 0.711415 716.352 -1.36637 353.347
lowerback 5.99401 1.11516 5.72688
upperback 3.01187 1.81259 3.77142
thorax -0.192178 0.937013 0.569737
lowerneck -12.1093 -2.61265 -10.3771
upperneck 38.6196 -3.04081 5.57735
head 16.0446 -2.02637 3.79208
rclavicle -4.47266e-016 -5.04913e-014
rhumerus -30.6604 -9.10632 -79.043
rradius 24.9347
rwrist -8.60085
rhand -18.9833 11.5813
rfingers 7.12502
rthumb 7.32123 -18.272
lclavicle -4.47266e-016 -5.04913e-014
lhumerus -36.945 15.9002 81.9776
lradius 20.5049
lwrist -4.61902
lhand -13.19 24.2608
lfingers 7.12502
lthumb 12.9101 53.8414
rfemur 9.34072 -4.4441 30.5089
rtibia 14.1154
rfoot -15.9365 3.72493
rtoes 9.83789
lfemur -28.2794 3.35789 -9.13925
ltibia 45.2074
lfoot -14.2614 -1.64984
ltoes -12.2372
1760
root 30.5677 17.8445 0.779705 716.374 -1.65549 353.395
lowerback 5.9681 1.20488 5.7939
upperback 3.05882 1.92913 3.72111
thorax -0.121215 0.998062 0.475639
lowerneck -12.0159 -2.5818 -10.3549
upperneck 38.441 -3.01667 5.6026
head 15.9251 -2.00553 3.79534
rclavicle 3.75206e-014 4.73108e-014
rhumerus -30.6239 -8.78774 -79.1354
rradius 25.0041
rwrist -9.13624
rhand -18.8642 11.6394
rfingers 7.12502
rthumb 7.43623 -18.2099
lclavicle 3.75206e-014 4.73108e-014
lhumerus -36.9432 15.9642 81.9662
lradius 19.7023
lwrist -4.20877
lhand -14.1167 22.884
lfingers 7.12502
lthumb 12.0165 52.519
rfemur 9.81939 -4.42833 30.3835
rtibia 13.5916
rfoot -15.9303 3.84975
rtoes 9.48533
lfemur -28.1829 3.02554 -9.01561
ltibia 43.2562
lfoot -14.3099 -0.786695
ltoes -13.0072
1761
root 30.5763 17.8292 0.845799 716.444 -1.99423 352.967
lowerback 5.91998 1.30515 6.34115
upperback 3.12142 2.08141 3.78913
thorax -0.00479664 1.08238 0.237296
lowerneck -12.1369 -2.64953 -10.2439
upperneck 38.3439 -3.12431 5.56845
head 15.9134 -2.03545 3.73827
rclavicle -5.1684e-015 -7.15625e-015
rhumerus -30.5251 -8.60902 -79.2076
rradius 25.0877
rwrist -9.2759
rhand -18.8585 11.445
rfingers 7.12502
rthumb 7.44176 -18.4041
lclavicle -5.1684e-015 -7.15625e-015
lhumerus -37.0461 16.0201 81.8942
lradius 19.3358
lwrist -4.69472
lhand -14.0689 22.2419
lfingers 7.12502
lthumb 12.0627 51.8743
rfemur 10.2899 -4.18993 30.843
rtibia 13.0069
rfoot -15.8207 3.80016
rtoes 9.29322
lfemur -28.1173 2.77819 -8.35296
ltibia 41.2931
lfoot -14.3552 -0.023854
ltoes -13.834
